# xmcd
#
# Track frame offsets:
# 150
# 14612
# 29157
# 46998
# 60940
# 76880
# 92568
# 110503
# 124051
# 140674
# 155832
# 174203
# 189181
# 202945
# 215622
# 229933
# 247473
# 262185
# 277767
# 291694
#
# Disc length: 4050 seconds
#
#
# Revision: 0
# Processed by: cddbd v1.5.2PL0 Copyright (c) Steve Scherf et al.
# Submitted via: FreeRIP 2.951 
#
DISCID=2d0fd014
DTITLE=Edição Sertaneja - 2007
DYEAR=2006
DGENRE=Country
TTITLE0=Na cara do meu coração - Ataíde e Alexandre
TTITLE1=Amor que fica - Zezé di Camargo e Luciano - Part especial Ivete Sangalo
TTITLE2=Deu saudade - Marlon e Maicon
TTITLE3=Vamo quebra tudo - Thulio e Thiago
TTITLE4=Vida marvada - Chitãozinho e Xororó
TTITLE5=Quando acaba uma paixão - Daniel
TTITLE6=A B C D E - Guilherme Santiago
TTITLE7=Vou mandar o Paulo atrás - Felipe Falcão
TTITLE8=Vida de cão - Rio Negro e Solimões
TTITLE9=Eu não sei dizer que eu não te amo - Edson e Hudson
TTITLE10=Duas pessoas nuas - Cézar e Paulinho
TTITLE11=Pra não te perder - Mayck e Lyan
TTITLE12=Bão demais da conta - Teodoro e Sampaio
TTITLE13=Vagabundo - Hugo Pena e Gabriel
TTITLE14=De latinha na mão - Leonardo e Zeca Pagodinho
TTITLE15=Me apaixonei - Eduardo Costa
TTITLE16=Pra dá um picote - Rick e Renner
TTITLE17=Porta bandeira - Gian e Giovani
TTITLE18=Chora, Carolina - Emílio e Eduardo
TTITLE19=Sapateia - Alan e Aladin
EXTD=PiratCorp S/A
EXTT0=
EXTT1=
EXTT2=
EXTT3=
EXTT4=
EXTT5=
EXTT6=
EXTT7=
EXTT8=
EXTT9=
EXTT10=
EXTT11=
EXTT12=
EXTT13=
EXTT14=
EXTT15=
EXTT16=
EXTT17=
EXTT18=
EXTT19=
PLAYORDER=
